<svg width="162" height="41" viewBox="0 0 162 41" fill="none" xmlns="http://www.w3.org/2000/svg">
<g clip-path="url(#clip0_1206_6999)">
<path d="M66.6041 41C65.9243 40.8065 65.2446 40.6287 64.5806 40.4196C62.534 39.7679 60.8155 38.3653 59.7764 36.4982C58.7372 34.6312 58.4559 32.4408 58.9898 30.3748C59.1848 29.6062 59.5537 29.2245 60.3915 29.3709C61.3821 29.5591 62.3675 29.763 63.3529 29.8519C64.3382 29.9408 64.4067 30.3748 64.3119 31.1905C64.0695 33.8468 64.9916 35.3318 67.052 35.7658C68.0201 35.9666 69.0288 35.8123 69.891 35.3316C70.7533 34.8509 71.4108 34.0763 71.7417 33.1514C72.1152 32.1184 72.1179 30.9891 71.7492 29.9545C71.3805 28.9198 70.6631 28.0431 69.7183 27.4728C69.323 27.3272 68.8994 27.2735 68.48 27.3159C64.7387 27.363 61.419 26.3904 59.4641 22.955C58.4573 21.2731 57.9215 19.3548 57.9122 17.3985C57.903 15.4423 58.4205 13.5191 59.4114 11.8278C60.4605 10.1788 61.9897 8.88483 63.7963 8.11729C65.603 7.34975 67.6019 7.14483 69.5286 7.52965C70.5087 7.69175 71.4677 7.96888 72.5532 8.21987C73.3805 7.31527 74.3026 6.35837 75.1879 5.35442C75.3522 5.07098 75.6232 4.86386 75.9414 4.77856C76.2595 4.69326 76.5987 4.73676 76.8846 4.8995C77.0159 4.97328 77.132 5.07083 77.2271 5.18709C80.1569 7.5558 79.4929 6.98584 77.7013 9.37023C77.2113 10.0134 76.6843 10.6199 76.1785 11.237C78.8975 17.36 78.3916 21.2765 74.2604 25.6113C75.3926 26.5554 76.2562 27.777 76.7656 29.1547C77.2749 30.5325 77.4122 32.0184 77.1639 33.4651C76.9238 35.2375 76.128 36.8901 74.8892 38.1888C73.6504 39.4876 72.0312 40.3668 70.261 40.7019C69.8974 40.7804 69.5391 40.9006 69.2071 41H66.6041ZM72.3582 17.3391C72.4127 16.7746 72.3544 16.2049 72.1868 15.6628C72.0192 15.1206 71.7455 14.6165 71.3814 14.1794C71.0172 13.7423 70.5698 13.3808 70.0647 13.1154C69.5596 12.8501 69.0068 12.6862 68.4378 12.6331C68.2361 12.6174 68.0335 12.6174 67.8318 12.6331C66.6723 12.6247 65.5568 13.0731 64.7299 13.8799C63.9031 14.6866 63.4325 15.7859 63.4214 16.9365C63.4133 17.0758 63.4133 17.2155 63.4214 17.3548C63.3624 17.9235 63.417 18.4982 63.5822 19.0459C63.7475 19.5936 64.02 20.1036 64.3842 20.5466C64.7484 20.9896 65.1971 21.357 65.7046 21.6276C66.2121 21.8982 66.7685 22.0667 67.3418 22.1236C67.5172 22.1356 67.6933 22.1356 67.8687 22.1236C70.5508 22.1236 72.3213 20.2307 72.316 17.3287" fill="#04004D"/>
<path d="M161.5 17.6737C161.358 18.4999 161.279 19.3313 161.073 20.1523C159.887 25.1668 155.277 28.0584 149.865 27.2427C143.763 26.3172 140.665 21.6686 141.719 15.0488C142.551 9.86696 147.515 6.6198 153.148 7.54009C155.334 7.73795 157.37 8.72533 158.871 10.3148C160.372 11.9043 161.232 13.9852 161.289 16.1626C161.331 16.4711 161.426 16.7848 161.489 17.0986L161.5 17.6737ZM155.972 17.3757C156.058 16.2046 155.671 15.0478 154.898 14.1594C154.124 13.2711 153.026 12.7239 151.846 12.6383C151.702 12.6304 151.558 12.6304 151.414 12.6383C150.833 12.6328 150.255 12.7411 149.716 12.9571C149.176 13.173 148.685 13.4924 148.27 13.897C147.855 14.3015 147.525 14.7833 147.297 15.3147C147.07 15.8461 146.951 16.4167 146.946 16.994C146.946 17.109 146.946 17.2188 146.946 17.3286C146.837 18.4918 147.198 19.6502 147.949 20.55C148.699 21.4498 149.779 22.0175 150.951 22.1288C151.109 22.1288 151.267 22.1288 151.425 22.1288C152.012 22.1413 152.596 22.0385 153.144 21.8264C153.691 21.6144 154.191 21.2971 154.614 20.8929C155.038 20.4887 155.377 20.0055 155.612 19.471C155.846 18.9365 155.973 18.3613 155.983 17.7783C155.991 17.6373 155.991 17.4959 155.983 17.3548" fill="#04004D"/>
<path d="M49.9004 24.2465C49.1116 25.3322 48.0456 26.1898 46.812 26.7311C45.5784 27.2724 44.2218 27.4778 42.8816 27.3263C41.2742 27.2435 39.7318 26.6701 38.4651 25.6846C37.1985 24.6991 36.2694 23.3495 35.8049 21.8202C34.1292 17.3234 35.2305 12.2042 38.5766 9.64207C40.1449 8.38362 42.0471 7.60323 44.0531 7.39536C46.0591 7.18748 48.0828 7.56103 49.8793 8.47079C53.5679 10.1074 54.9168 13.3128 55.0012 17.1142C55.0697 19.8176 55.0012 22.5209 55.0328 25.2086C55.0591 26.3694 54.6428 26.908 53.452 26.7773C53.166 26.7563 52.879 26.7563 52.5931 26.7773C49.6738 26.7773 50.3114 26.8871 49.8951 24.2465M40.4103 17.4907C40.4103 20.4869 42.0649 22.2333 44.8734 22.2386C46.1203 22.2387 47.3171 21.7515 48.2047 20.8824C49.0923 20.0134 49.5992 18.8325 49.6159 17.5953C49.6159 17.5011 49.6159 17.4018 49.6159 17.3077C49.6717 16.1168 49.2493 14.9525 48.4412 14.0703C47.6332 13.1881 46.5055 12.6599 45.3055 12.6016H44.9999C44.3891 12.6064 43.7853 12.7306 43.2229 12.9672C42.6605 13.2037 42.1507 13.5479 41.7225 13.9801C41.2942 14.4123 40.9561 14.9241 40.7273 15.4861C40.4985 16.0481 40.3837 16.6493 40.3892 17.2554C40.3892 17.3443 40.3892 17.4332 40.3892 17.5221" fill="#04004D"/>
<path d="M108.311 18.2384C108.553 21.6843 111.878 23.2896 115.161 21.768C115.741 21.5065 116.51 21.0621 116.958 21.2451C118.118 21.7853 119.214 22.4517 120.225 23.2321C120.351 23.3262 120.225 24.0739 119.998 24.3092C118.682 25.6637 117.012 26.6284 115.176 27.0957C113.339 27.5629 111.407 27.5142 109.597 26.9551C107.867 26.6162 106.291 25.7416 105.094 24.4572C103.897 23.1727 103.141 21.5446 102.936 19.8071C102.636 18.037 102.668 16.2269 103.031 14.4684C104.233 8.9937 109.976 6.13348 115.899 7.8904C117.892 8.44306 119.635 9.65568 120.838 11.3269C122.041 12.9981 122.632 15.0273 122.512 17.0776C122.475 18.0816 121.985 18.2437 121.142 18.2332C117.422 18.2332 113.696 18.2332 109.976 18.2332H108.311M116.547 15.1638C116.191 14.3394 115.577 13.6503 114.796 13.1984C114.015 12.7465 113.109 12.5556 112.21 12.654C111.434 12.6242 110.67 12.856 110.044 13.3118C109.417 13.7675 108.964 14.4203 108.759 15.1638H116.547Z" fill="#04004D"/>
<path d="M99.5271 20.6542C99.5271 22.2229 99.4902 23.7916 99.5271 25.3603C99.5534 26.3694 99.2162 26.8296 98.1254 26.8034C93.3514 26.7041 94.1049 27.4414 94.0469 22.887C94.0153 20.7954 94.0469 18.7038 94.0469 16.6123C94.1472 15.661 93.8628 14.7091 93.2561 13.9659C92.6494 13.2227 91.7701 12.7489 90.8116 12.6487C90.6501 12.6382 90.4882 12.6382 90.3268 12.6487C89.3814 12.5429 88.4324 12.814 87.6883 13.4023C86.9443 13.9906 86.4661 14.848 86.3589 15.7861C86.3353 16.0243 86.3353 16.2643 86.3589 16.5025C86.2746 19.4411 86.2957 22.385 86.3589 25.3237C86.3589 26.4426 85.9532 26.8296 84.8414 26.8087C80.1411 26.7041 80.9579 27.4571 80.8894 22.9393C80.863 20.8477 80.8894 18.7561 80.8894 16.6646C80.9737 10.4892 85.5 6.65117 91.6652 7.50349C93.8609 7.6657 95.9078 8.66608 97.3758 10.2944C98.8438 11.9228 99.6187 14.0524 99.5376 16.2358C99.5798 17.7103 99.5376 19.1744 99.5376 20.649L99.5271 20.6542Z" fill="#04004D"/>
<path d="M135.068 13.2397V24.6022C135.068 26.7774 135.068 26.7879 132.824 26.7669C129.23 26.7669 129.609 27.2898 129.594 23.6296C129.594 20.2308 129.594 16.832 129.594 13.2449C128.129 13.2449 126.753 13.2136 125.378 13.2449C124.287 13.2815 123.861 12.858 123.887 11.739C123.987 7.3624 123.313 8.07877 127.528 7.9951C128.145 7.9951 128.766 7.9951 129.588 7.9951C129.588 5.84602 129.652 3.78059 129.562 1.72039C129.509 0.439307 129.915 -0.0417538 131.264 -0.00515134C135.659 0.125572 135.005 -0.601249 135.058 3.75967C135.058 5.12965 135.058 6.48394 135.058 7.9951C136.554 7.9951 137.924 8.03693 139.273 7.9951C140.327 7.95327 140.738 8.41865 140.728 9.4226C140.665 13.9038 141.255 13.1822 136.992 13.2502C136.381 13.2502 135.769 13.2502 135.037 13.2502" fill="#04004D"/>
<path d="M18.7794 16.9523C18.7794 16.6595 18.8163 16.3667 18.8163 16.0738C18.8226 13.6636 17.8637 11.3496 16.1507 9.64085C14.4377 7.93213 12.1107 6.96867 9.68186 6.96243C7.25297 6.95619 4.92106 7.90768 3.19913 9.60757C1.47719 11.3075 0.506289 13.6165 0.5 16.0268H0.5L0.568502 26.4846C0.56988 26.6405 0.602185 26.7946 0.663573 26.9381C0.724962 27.0816 0.814231 27.2116 0.926283 27.3209C1.03833 27.4301 1.17098 27.5164 1.31663 27.5748C1.46229 27.6332 1.6181 27.6625 1.77518 27.6611L5.17392 27.6245C5.35058 27.6232 5.52523 27.5871 5.68778 27.5185C5.85033 27.4498 5.99758 27.3499 6.12102 27.2245C6.24447 27.099 6.34167 26.9506 6.40702 26.7877C6.47238 26.6249 6.50459 26.4508 6.5018 26.2755L6.44911 20.9158V17.0569C6.44706 16.2549 6.7495 15.4817 7.29619 14.8911C7.84288 14.3005 8.59369 13.9359 9.3991 13.87C10.2045 13.804 11.0054 14.0415 11.6422 14.5352C12.2791 15.0289 12.7051 15.7426 12.8356 16.534L12.941 26.4689C12.9423 26.6248 12.9746 26.7789 13.036 26.9224C13.0974 27.0659 13.1867 27.1959 13.2987 27.3052C13.4108 27.4144 13.5434 27.5007 13.6891 27.5591C13.8347 27.6175 13.9906 27.6468 14.1476 27.6454L17.5464 27.6088C17.723 27.6075 17.8977 27.5714 18.0602 27.5028C18.2228 27.4341 18.37 27.3342 18.4935 27.2088C18.6169 27.0833 18.7141 26.9349 18.7795 26.772C18.8448 26.6092 18.877 26.4351 18.8743 26.2598L18.7794 16.9523Z" fill="#2EFFAF"/>
<path d="M31.1469 16.9522C31.1733 16.6593 31.1891 16.3665 31.1891 16.0737C31.2213 14.8625 31.0092 13.657 30.5651 12.5283C30.121 11.3996 29.454 10.3704 28.6032 9.50132C27.7524 8.63219 26.7351 7.94067 25.611 7.46743C24.487 6.99418 23.2789 6.74877 22.0578 6.74564C20.8368 6.7425 19.6275 6.98169 18.5009 7.44915C17.3744 7.91661 16.3535 8.6029 15.4982 9.46764C14.6429 10.3324 13.9704 11.3581 13.5205 12.4845C13.0705 13.6109 12.8521 14.8152 12.878 16.0266L12.9465 26.4845C12.9479 26.6404 12.9802 26.7945 13.0416 26.9379C13.103 27.0814 13.1923 27.2115 13.3043 27.3208C13.4164 27.43 13.549 27.5163 13.6947 27.5747C13.8403 27.633 13.9961 27.6624 14.1532 27.661L17.552 27.6244C17.7286 27.623 17.9033 27.587 18.0658 27.5183C18.2284 27.4497 18.3756 27.3497 18.4991 27.2243C18.6225 27.0989 18.7197 26.9505 18.7851 26.7876C18.8504 26.6247 18.8826 26.4506 18.8798 26.2753L18.8166 20.9157V17.0567C18.8224 16.2588 19.1289 15.492 19.6757 14.907C20.2226 14.322 20.9702 13.9612 21.7716 13.8956C22.573 13.8301 23.3701 14.0645 24.0061 14.5527C24.6421 15.0409 25.071 15.7477 25.2083 16.5339L25.3085 26.4688C25.314 26.7837 25.4443 27.0837 25.6711 27.3039C25.898 27.5241 26.2031 27.6467 26.5204 27.6453L29.9192 27.6087C30.0958 27.6074 30.2705 27.5713 30.433 27.5026C30.5956 27.434 30.7428 27.334 30.8663 27.2086C30.9897 27.0832 31.0869 26.9348 31.1523 26.7719C31.2176 26.609 31.2498 26.4349 31.247 26.2597L31.1469 16.9522Z" fill="#00D591"/>
</g>
<defs>
<clipPath id="clip0_1206_6999">
<rect width="161" height="41" fill="white" transform="translate(0.5)"/>
</clipPath>
</defs>
</svg>
